<svg width="182" height="183" viewBox="0 0 182 183" fill="none" xmlns="http://www.w3.org/2000/svg">
<circle cx="91" cy="91.621" r="90.8554" fill="#3B6978"/>
<path d="M18.9233 104.669H23.0432V86.9912L28.8485 102.272H31.7699L37.5752 86.9912V104.669H41.6951V78.4518H36.8261L30.3092 95.9052L23.7922 78.4518H18.9233V104.669Z" fill="white"/>
<path d="M46.2896 80.4743C46.2896 81.9724 47.4507 83.1335 48.9863 83.1335C50.5219 83.1335 51.6829 81.9724 51.6829 80.4743C51.6829 78.9761 50.5219 77.7402 48.9863 77.7402C47.4507 77.7402 46.2896 78.9761 46.2896 80.4743ZM47.0387 85.7927V104.669H50.9339V85.7927H47.0387Z" fill="white"/>
<path d="M68.6887 98.2648C67.7898 100.287 66.2542 101.523 64.007 101.523C60.6736 101.523 59.2503 98.7891 59.2503 95.231C59.2503 91.6729 60.6736 88.9388 64.007 88.9388C66.2542 88.9388 67.7898 90.1748 68.6887 92.1973L72.1719 90.6991C70.6737 87.2909 68.0145 85.4931 64.007 85.4931C58.0144 85.4931 55.1304 90.0624 55.1304 95.231C55.1304 100.4 58.0144 104.969 64.007 104.969C68.0145 104.969 70.6737 103.171 72.1719 99.7629L68.6887 98.2648Z" fill="white"/>
<path d="M76.3769 78.1522V104.669H80.2721V96.6917C80.2721 91.6729 83.2309 88.9388 85.3658 88.9388C87.1261 88.9388 88.3246 89.5006 88.3246 92.3846V104.669H92.2198V91.3733C92.2198 87.3658 90.1224 85.4931 86.6392 85.4931C83.7927 85.4931 81.6204 87.0661 80.2721 89.0137V78.1522H76.3769Z" fill="white"/>
<path d="M96.5665 99.2386C96.5665 103.171 99.2257 104.969 102.372 104.969C105.031 104.969 106.979 103.92 108.215 102.197L108.589 104.669H111.885V92.9464C111.885 87.4032 108.739 85.4931 104.357 85.4931C100.724 85.4931 98.0272 87.5156 97.2407 90.6991L100.799 91.4482C101.435 89.7628 102.784 88.9388 104.319 88.9388C106.304 88.9388 107.99 89.8752 107.99 92.2347V93.0587H104.731C99.8999 93.0587 96.5665 95.3434 96.5665 99.2386ZM100.686 99.2386C100.686 97.4408 102.185 96.3172 104.582 96.3172H107.99V96.7292C107.99 99.9877 105.443 101.523 103.046 101.523C101.398 101.523 100.686 100.512 100.686 99.2386Z" fill="white"/>
<path d="M125.16 88.9388C127.969 88.9388 129.392 90.9613 129.729 93.0587H120.553C120.965 90.6991 122.576 88.9388 125.16 88.9388ZM133.849 94.6318C133.849 90.3995 131.19 85.4931 125.16 85.4931C118.943 85.4931 116.358 90.7366 116.358 95.231C116.358 99.7255 118.943 104.969 125.16 104.969C129.467 104.969 131.602 103.209 133.437 99.6506L130.104 98.3397C129.13 100.4 127.183 101.523 125.16 101.523C122.089 101.523 120.478 99.0888 120.478 96.3172H133.849V94.6318Z" fill="white"/>
<path d="M138.079 78.1522V104.669H141.974V78.1522H138.079Z" fill="white"/>
<path d="M152.987 85.4931C149.579 85.4931 147.182 87.9276 147.182 90.849C147.182 93.7329 149.054 95.1187 151.227 96.0176C153.436 96.9539 155.721 97.4034 155.721 99.0513C155.721 100.774 154.672 101.523 153.174 101.523C151.077 101.523 149.766 99.8004 149.017 98.115L145.721 99.9128C146.695 102.272 149.129 104.969 153.024 104.969C157.069 104.969 159.579 102.235 159.579 98.9764C159.579 95.6056 156.845 94.482 154.298 93.5082C152.35 92.7591 150.927 92.1598 150.927 90.8115C150.927 89.5755 151.826 88.9388 152.8 88.9388C153.998 88.9388 155.159 89.4632 156.096 90.6617L158.568 88.4894C157.369 86.6167 155.272 85.4931 152.987 85.4931Z" fill="white"/>
</svg>
